<svg width="750" height="428" viewBox="0 0 750 428" fill="none" xmlns="http://www.w3.org/2000/svg">
<path d="M476.105 331.756C475.745 330.537 476.338 329.224 477.429 328.824C481.78 327.221 484.778 328.734 487.186 329.946C489.384 331.054 491.119 331.931 493.932 330.893C496.749 329.856 497.678 327.998 498.855 325.648C500.146 323.069 501.75 319.861 506.102 318.258C510.453 316.654 513.449 318.167 515.856 319.384C518.051 320.491 519.786 321.368 522.603 320.331C525.419 319.293 526.348 317.435 527.524 315.084C528.815 312.506 530.42 309.298 534.771 307.695C539.122 306.09 542.118 307.604 544.527 308.821C546.721 309.927 548.456 310.806 551.272 309.768C552.363 309.364 553.537 310.027 553.895 311.247C554.255 312.466 553.662 313.78 552.571 314.179C548.22 315.783 545.224 314.27 542.816 313.054C540.621 311.946 538.887 311.069 536.07 312.107C533.253 313.144 532.325 315.002 531.147 317.354C529.858 319.931 528.253 323.139 523.902 324.742C519.55 326.345 516.555 324.833 514.146 323.616C511.949 322.51 510.214 321.632 507.4 322.669C504.583 323.707 503.656 325.566 502.478 327.916C501.187 330.494 499.582 333.702 495.231 335.305C490.88 336.909 487.882 335.396 485.473 334.183C483.277 333.075 481.542 332.198 478.727 333.236C477.639 333.638 476.466 332.975 476.105 331.756Z" fill="#FFB0EB"/>
<path d="M520.871 91.2491C518.178 85.3255 511.97 80.888 505.332 78.034C497.648 74.7309 488.989 74.1061 481.028 71.4642C476.191 69.8597 458.922 59.5017 455.412 58.1277C451.043 56.4201 446.278 55.8043 441.466 56.053C432.452 56.5201 424.113 59.5138 415.844 62.2709C409.324 64.4456 402.247 66.8297 395.113 66.8388C390.284 66.8447 385.459 66.587 380.631 66.8479C376.454 67.0753 370.168 67.4362 367.82 70.8727C365.243 74.646 369.206 78.4222 373.247 79.8295C378.169 81.5432 383.881 81.6555 389.147 81.6311C393.471 81.61 397.783 81.2611 402.107 81.2308C420.765 81.1065 439.73 79.238 458.299 81.431C466.26 82.3713 474.539 84.1365 481.636 86.8633C484.425 87.9369 487.269 89.1684 489.591 90.864C491.762 92.4533 493.114 94.0911 492.906 96.2901C492.894 96.4146 492.93 96.3022 492.832 96.6299C492.808 96.7148 492.649 97.109 492.667 97.1122C492.583 97.2517 492.49 97.3851 492.396 97.5186C492.39 97.5246 492.372 97.5489 492.35 97.5762C492.274 97.6459 492.133 97.7854 492.107 97.8098C491.987 97.9038 491.868 97.9948 491.746 98.0858C491.727 98.0858 491.407 98.2707 491.302 98.3253C491.102 98.4254 490.896 98.5165 490.687 98.6044C490.582 98.6499 490.473 98.6894 490.368 98.7318C490.335 98.744 490.308 98.7561 490.28 98.7682C490.268 98.7712 490.254 98.7773 490.235 98.7834C488.046 99.4992 485.73 99.9025 483.609 100.773C478.488 102.878 477.218 108.569 482.055 111.464C485.901 113.767 491.562 113.988 496.139 114C503 114.015 510.321 113.055 515.456 108.965C521.073 104.495 523.658 97.379 520.871 91.2491Z" fill="url(#paint0_linear_2_1833)"/>
<path d="M203.573 100.763C187.719 107.494 171.677 115.606 160.436 129.732C158.238 132.497 156.161 135.715 156.01 139.402C155.656 148.021 165.249 152.495 173.008 152.97C177.375 153.236 183.079 151.793 183.544 146.965C183.946 142.805 179.914 139.731 179.12 135.643C178.172 130.764 181.988 126.445 185.637 123.529C212.812 101.801 248.486 99.3058 281.973 99.5099C288.809 99.5518 297.683 97.9292 298.888 90.4554C299.685 85.5278 296.099 80.7862 291.885 79.0048C287.672 77.2233 282.999 77.6522 278.503 78.009C266.641 78.9508 254.488 79.1758 243.125 75.2888C233.327 71.9358 225.274 68.4148 220.43 79.7006C215.561 91.0313 215.874 95.5419 203.573 100.763Z" fill="url(#paint1_linear_2_1833)"/>
<path d="M188.366 198.684C211.335 191.362 235.901 190.262 259.329 195.515C261.353 195.97 263.46 196.468 265.458 195.882C267.453 195.297 269.268 193.228 268.967 190.964C268.559 187.908 265.1 186.901 262.327 186.581C254.504 185.678 246.68 184.772 238.856 183.868C236.961 183.65 234.978 183.397 233.396 182.221C231.809 181.046 230.795 178.633 231.672 176.753C233.404 173.033 240.213 174.615 240.812 170.483C241.27 167.322 237.311 165.98 234.423 166C220.051 166.117 205.693 168.049 191.712 171.744C189.749 172.264 187.68 172.89 186.308 174.531C184.935 176.17 184.692 179.163 186.34 180.455C187.877 181.662 190.199 180.866 191.72 182.102C193.266 183.358 193.088 186.145 191.877 187.792C190.666 189.439 188.781 190.24 186.998 191.021C175.582 196.017 164.825 202.858 155.17 211.26C150.218 215.572 145.458 220.421 142.511 226.593C138.762 234.432 137.931 252.125 149.196 252.967C156.688 253.527 155.801 246.915 155.496 240.735C154.293 216.564 168.322 205.074 188.366 198.684Z" fill="url(#paint2_linear_2_1833)"/>
<path d="M583.797 149C583.39 149 582.987 148.88 582.629 148.647L551.121 128.025C550.347 127.517 549.915 126.559 550.014 125.572C550.113 124.586 550.724 123.755 551.581 123.447L597.002 107.124C597.852 106.819 598.785 107.088 599.392 107.811C599.999 108.536 600.168 109.584 599.824 110.496L585.91 147.442C585.656 148.119 585.148 148.638 584.518 148.871C584.281 148.957 584.037 149 583.797 149ZM557.807 126.527L582.694 142.817L593.684 113.633L557.807 126.527Z" fill="#75C4FD"/>
<path d="M160.994 327C160.54 327 160.092 326.852 159.699 326.564C159.042 326.077 158.636 325.254 158.618 324.361L158.001 294.765C157.979 293.756 158.455 292.821 159.229 292.336C160.006 291.849 160.954 291.894 161.691 292.454L185.942 310.852C186.671 311.405 187.072 312.367 186.989 313.36C186.906 314.353 186.348 315.21 185.539 315.593L161.905 326.79C161.614 326.931 161.301 327 160.994 327ZM162.858 299.832L163.285 320.289L179.622 312.549L162.858 299.832Z" fill="#FFB0EB"/>
<path d="M512.499 30.437C524.104 33.4961 535.944 37.5144 543.409 44.971C550.875 52.4247 552.246 64.2 543.383 70.6977C539.192 73.769 532.614 76.3336 533.1 80.7584C533.424 83.6991 537.028 85.8023 540.646 86.819C551.536 89.8842 563.656 86.4942 573.835 82.2333C583.352 78.2485 592.507 73.3016 598.564 66.4125C604.622 59.5263 607.134 50.3913 602.883 42.7526C598.159 34.2609 586.506 29.3869 575.236 26.1001C540.28 15.909 475.045 14 464.689 14C454.333 14 448.757 15.7451 450.235 18.1457C451.714 20.5463 464.935 21.748 467.692 22.0607C482.92 23.7905 497.941 26.5978 512.499 30.437Z" fill="url(#paint3_linear_2_1833)"/>
<path d="M200.008 52.6249C168.066 61.6876 137.013 77.6651 113.705 103.623C108.391 109.539 103.435 116.076 100.515 123.787C97.5957 131.499 96.9186 140.577 100.09 148.168C104.339 158.337 114.339 163.801 123.959 167.11C127.731 168.408 131.704 169.506 135.594 168.755C139.483 168.003 143.266 164.947 143.987 160.628C145.208 153.314 138.053 148.218 133.489 142.787C123.07 130.397 125.34 109.545 134.396 95.8903C143.453 82.2357 157.531 74.0599 171.108 66.3487C178.434 62.1884 186.301 57.9075 194.473 58.9332C199.353 59.5456 203.9 62.0224 208.745 62.9216C219.899 64.9911 230.691 58.5893 241.221 54.0126C257.974 46.7297 276.234 43.7793 294.158 45.4567C301.062 46.1022 309.045 46.9199 315.088 44.1474C318.094 42.7685 317.385 37.7967 314.15 37.4407C298.277 35.6849 281.245 39.6401 265.704 41.1757C243.61 43.3508 221.528 46.5187 200.008 52.6249Z" fill="url(#paint4_linear_2_1833)"/>
<path d="M353.917 133.681C370.964 138.92 388.381 147.949 405.573 143.326C408.122 142.642 410.723 141.575 412.443 139.375C414.162 137.175 414.663 133.583 412.93 131.396C411.409 129.476 408.853 129.243 406.7 128.335C404.551 127.426 402.483 124.68 403.735 122.534C425.041 118.766 447.312 121.987 467.036 131.694C468.178 132.255 469.394 132.925 469.945 134.168C470.899 136.314 469.2 138.96 467.136 139.641C465.072 140.322 462.866 139.664 460.775 139.094C451.881 136.668 442.635 135.834 433.505 136.634C432.262 136.742 430.925 136.926 430.01 137.868C428.322 139.599 429.145 142.963 431 144.468C432.854 145.97 435.289 146.152 437.579 146.365C456.548 148.123 475.063 155.549 490.666 167.658C492.493 169.078 494.503 171.219 493.887 173.597C493.001 177.019 488.452 176.209 485.542 174.706C467.136 165.191 447.952 157.531 428.306 151.848C425.063 150.911 421.756 150.023 418.409 150.182C412.478 150.462 407.095 153.974 401.335 155.57C390.786 158.493 379.675 154.831 369.71 150.009C359.746 145.181 350.097 139.099 339.419 136.834C329.799 134.793 319.896 135.968 310.099 135.926C309.06 135.919 307.956 135.881 307.093 135.244C298.426 128.852 319.347 128.111 321.409 128.278C332.465 129.184 343.178 130.38 353.917 133.681Z" fill="url(#paint5_linear_2_1833)"/>
<path d="M566.002 227C565.934 227 565.868 227 565.799 227C557.529 226.871 550.89 218.916 551.001 209.267C551.111 199.617 557.922 191.866 566.2 192.002C574.47 192.131 581.11 200.086 580.999 209.735C580.888 219.301 574.18 227 566.002 227ZM565.997 196.538C559.941 196.538 554.974 202.238 554.892 209.325C554.81 216.471 559.725 222.362 565.849 222.458C571.974 222.568 577.023 216.818 577.105 209.674C577.186 202.528 572.272 196.636 566.148 196.541C566.097 196.538 566.047 196.538 565.997 196.538Z" fill="#86E29B"/>
<path d="M468.382 301.478C489.404 295.848 509.199 284.54 525.616 268.778C533.439 261.268 540.654 252.503 544.526 241.799C545.314 239.621 545.901 236.95 544.636 235.078C543.309 233.114 540.512 233.175 538.672 234.521C536.832 235.865 535.707 238.112 534.615 240.247C529.001 251.209 522.125 261.731 512.69 268.642C510.688 270.108 507.565 271.168 506.274 268.908C505.206 267.039 506.491 264.643 507.758 262.941C513.283 255.515 519.476 248.679 524.359 240.71C529.244 232.74 532.816 223.285 532.193 213.643C531.572 203.997 525.915 194.37 517.545 192.037C514.84 191.285 511.372 190.746 510.596 187.746C509.924 185.151 512.018 182.589 514.281 181.663C521.226 178.823 528.217 185.617 532.581 192.31C536.942 199.004 541.693 206.977 549.06 207.711C550.959 207.902 552.877 207.563 554.776 207.769C562.248 208.586 566.983 217.397 568.388 225.665C570.622 238.795 566.743 253.882 556.697 261.077C551.434 264.847 545.095 266.152 539.409 269.048C527.882 274.912 519.865 286.751 510.531 296.338C508.649 298.274 506.666 300.149 504.346 301.347C498.533 304.347 491.764 302.62 485.368 302.938C477.772 303.312 470.73 306.649 463.81 309.891C459.302 312.006 447.694 319.743 442.967 315.986C432.758 307.871 465.475 302.254 468.382 301.478Z" fill="url(#paint6_linear_2_1833)"/>
<path d="M318.121 319.77C304.671 319.739 291.479 317.295 278.321 314.416C276.744 314.071 275.103 314.913 274.656 316.718C274.253 318.341 275.152 320.429 276.736 320.777C284.505 322.478 292.303 324.04 300.155 325.078C300.445 325.264 300.783 325.388 301.179 325.42C303.986 325.667 307.154 328.888 305.144 332.05C304.51 333.045 303.563 333.678 302.498 334.047C292.268 332.961 279.415 330.229 268.004 324.976C253.691 319.887 240.186 312.019 228.289 301.839C222.758 297.105 217.469 291.733 214.164 284.913C211.785 280.005 210.802 273.205 214.488 269.414C216.258 267.594 218.735 266.903 221.127 266.531C225.637 265.829 230.259 266.036 234.703 267.132C237.97 267.938 241.177 269.225 244.522 269.369C247.868 269.513 251.532 268.233 253.263 265.059C255.476 261.004 253.563 255.44 250.199 252.512C246.835 249.584 242.447 248.631 238.241 247.764C234.129 246.918 230.018 246.072 225.906 245.226C218.338 243.669 212.845 241.774 205.426 244.06C198.009 246.345 191.259 250.67 184.601 254.951C182.968 256 181.235 257.167 180.454 259.072C179.704 260.898 179.994 263.034 180.525 264.951C182.063 270.494 185.433 275.161 188.905 279.502C215.388 312.624 265.492 347.368 319.238 342.55V334.103C317.141 334.544 315.218 326.356 318.121 326.362C321.957 326.374 321.962 319.775 318.121 319.77Z" fill="url(#paint7_linear_2_1833)"/>
<path d="M509.812 321.314C509.812 321.314 527.292 331.171 527.002 324.749C526.742 318.997 513.155 320.794 510.325 321.231C509.995 321.282 509.812 321.314 509.812 321.314Z" fill="#7229B5"/>
<path d="M509.987 321.102C509.987 321.102 519.844 303.622 513.422 303.912C507 304.203 509.987 321.102 509.987 321.102Z" fill="#7229B5"/>
<path d="M498.893 328.995C498.893 328.995 516.373 338.852 516.083 332.43C515.793 326.009 498.893 328.995 498.893 328.995Z" fill="#7229B5"/>
<path d="M498.839 329.024C498.839 329.024 508.696 311.544 502.274 311.834C495.853 312.124 498.839 329.024 498.839 329.024Z" fill="#7229B5"/>
<path d="M490.145 336.663C490.145 336.663 505.48 345.31 505.226 339.677C504.971 334.043 490.145 336.663 490.145 336.663Z" fill="#7229B5"/>
<path d="M490.203 336.805C490.203 336.805 498.85 321.47 493.217 321.724C487.583 321.978 490.203 336.805 490.203 336.805Z" fill="#7229B5"/>
<path d="M482.409 345.017C482.409 345.017 497.703 351.203 496.787 345.999C495.871 340.793 482.409 345.017 482.409 345.017Z" fill="#7229B5"/>
<path d="M482.649 345.235C482.649 345.235 488.835 329.941 483.631 330.857C478.426 331.772 482.649 345.235 482.649 345.235Z" fill="#7229B5"/>
<path d="M475.763 354.077C475.763 354.077 492.137 356.099 489.906 351.308C487.675 346.517 475.763 354.077 475.763 354.077Z" fill="#7229B5"/>
<path d="M475.97 354.059C475.97 354.059 477.992 337.685 473.201 339.916C468.41 342.147 475.97 354.059 475.97 354.059Z" fill="#7229B5"/>
<path d="M470.547 362.848C470.547 362.848 484.743 364.601 482.809 360.447C480.875 356.293 470.547 362.848 470.547 362.848Z" fill="#7229B5"/>
<path d="M470.905 362.925C470.905 362.925 472.658 348.729 468.504 350.663C464.35 352.597 470.905 362.925 470.905 362.925Z" fill="#7229B5"/>
<path d="M467.063 369.901C467.063 369.901 479.187 371.398 477.536 367.851C475.884 364.303 467.063 369.901 467.063 369.901Z" fill="#7229B5"/>
<path d="M467.434 370.02C467.434 370.02 468.931 357.896 465.384 359.547C461.836 361.199 467.434 370.02 467.434 370.02Z" fill="#7229B5"/>
<path d="M509.035 321.844C509.035 321.844 528.263 313.98 526.236 310.413C524.208 306.846 509.035 321.844 509.035 321.844Z" fill="#7229B5"/>
<path d="M512.841 319.409C512.841 319.409 470.535 341.447 461.727 388.886" stroke="#7229B5" stroke-miterlimit="10"/>
<path d="M204.067 270.727C204.067 270.727 169.377 271.097 175.166 261.611C180.351 253.114 199.436 267.154 203.359 270.174C203.816 270.525 204.067 270.727 204.067 270.727Z" fill="#7229B5"/>
<path d="M203.979 270.261C203.979 270.261 203.609 235.571 213.095 241.36C222.58 247.149 203.979 270.261 203.979 270.261Z" fill="#7229B5"/>
<path d="M214.209 291.459C214.209 291.459 179.519 291.828 185.308 282.343C191.096 272.857 214.209 291.459 214.209 291.459Z" fill="#7229B5"/>
<path d="M214.266 291.547C214.266 291.547 213.896 256.857 223.382 262.646C232.868 268.434 214.266 291.547 214.266 291.547Z" fill="#7229B5"/>
<path d="M221.073 310.361C221.073 310.361 190.639 310.685 195.718 302.363C200.796 294.041 221.073 310.361 221.073 310.361Z" fill="#7229B5"/>
<path d="M220.866 310.528C220.866 310.528 220.542 280.094 228.864 285.173C237.186 290.251 220.866 310.528 220.866 310.528Z" fill="#7229B5"/>
<path d="M225.832 329.46C225.832 329.46 197.51 326.09 203.234 318.969C208.957 311.848 225.832 329.46 225.832 329.46Z" fill="#7229B5"/>
<path d="M225.287 329.591C225.287 329.591 228.657 301.269 235.778 306.993C242.899 312.716 225.287 329.591 225.287 329.591Z" fill="#7229B5"/>
<path d="M204.801 272.177C204.801 272.177 182.225 244.246 188.268 240.532C194.311 236.817 204.801 272.177 204.801 272.177Z" fill="#7229B5"/>
<path d="M201.065 265.318C201.065 265.318 229.037 307.297 228.702 363.481" stroke="#7229B5" stroke-miterlimit="10" stroke-linecap="round" stroke-linejoin="round"/>
<path d="M496.301 164.19C496.301 164.19 516.436 192.441 520.692 182.176C524.504 172.981 501.916 165.828 497.166 164.436C496.612 164.274 496.301 164.19 496.301 164.19Z" fill="#7229B5"/>
<path d="M496.73 163.987C496.73 163.987 524.981 143.852 514.716 139.596C504.45 135.341 496.73 163.987 496.73 163.987Z" fill="#7229B5"/>
<path d="M473.574 168.206C473.574 168.206 493.709 196.457 497.965 186.192C502.221 175.927 473.574 168.206 473.574 168.206Z" fill="#7229B5"/>
<path d="M473.469 168.212C473.469 168.212 501.72 148.077 491.455 143.821C481.19 139.566 473.469 168.212 473.469 168.212Z" fill="#7229B5"/>
<path d="M454.256 173.793C454.256 173.793 471.921 198.578 475.654 189.572C479.388 180.566 454.256 173.793 454.256 173.793Z" fill="#7229B5"/>
<path d="M454.243 174.059C454.243 174.059 479.028 156.395 470.022 152.661C461.015 148.927 454.243 174.059 454.243 174.059Z" fill="#7229B5"/>
<path d="M436.018 181.197C436.018 181.197 455.423 202.099 457.807 193.279C460.19 184.46 436.018 181.197 436.018 181.197Z" fill="#7229B5"/>
<path d="M436.233 181.715C436.233 181.715 457.135 162.31 448.315 159.926C439.496 157.543 436.233 181.715 436.233 181.715Z" fill="#7229B5"/>
<path d="M418.968 190.507C418.968 190.507 443.118 205.681 443.14 196.546C443.162 187.409 418.968 190.507 418.968 190.507Z" fill="#7229B5"/>
<path d="M419.305 190.631C419.305 190.631 434.48 166.481 425.344 166.459C416.208 166.437 419.305 190.631 419.305 190.631Z" fill="#7229B5"/>
<path d="M404.37 200.412C404.37 200.412 425.308 213.568 425.327 205.647C425.346 197.726 404.37 200.412 404.37 200.412Z" fill="#7229B5"/>
<path d="M404.874 200.795C404.874 200.795 418.03 179.857 410.109 179.838C402.188 179.819 404.874 200.795 404.874 200.795Z" fill="#7229B5"/>
<path d="M393.743 208.898C393.743 208.898 411.625 220.134 411.641 213.369C411.658 206.604 393.743 208.898 393.743 208.898Z" fill="#7229B5"/>
<path d="M394.237 209.356C394.237 209.356 405.473 191.474 398.708 191.458C391.943 191.441 394.237 209.356 394.237 209.356Z" fill="#7229B5"/>
<path d="M494.697 164.451C494.697 164.451 530.566 166.243 530.008 159.171C529.451 152.1 494.697 164.451 494.697 164.451Z" fill="#7229B5"/>
<path d="M502.441 163.43C502.441 163.43 420.047 166.901 371.464 234.706" stroke="#7229B5" stroke-miterlimit="10"/>
<path d="M316.324 244.203C317.576 243.659 307.202 213.18 306.528 211.568C296.465 187.49 281.449 167.89 263.266 155.201C229.676 131.761 190.439 134.15 152.754 143.163C157.427 143.275 161.656 146.216 165.478 149.532C190.483 171.229 203.748 210.813 229.526 230.96C254.521 250.496 287.175 256.759 316.324 244.203Z" fill="#81C2F6"/>
<path d="M301.393 237.599C301.393 237.599 255.078 157.872 171.962 146.924" stroke="white" stroke-miterlimit="10" stroke-linecap="round" stroke-linejoin="round"/>
<path d="M226.16 144.566L234.592 169.815L192.783 171.597" stroke="white" stroke-miterlimit="10" stroke-linecap="round" stroke-linejoin="round"/>
<path d="M258.163 165.561L266.386 194.742L231.229 196.581" stroke="white" stroke-miterlimit="10" stroke-linecap="round" stroke-linejoin="round"/>
<path d="M286.65 192.414L291.158 222.52L255.556 219.263" stroke="white" stroke-miterlimit="10" stroke-linecap="round" stroke-linejoin="round"/>
<path d="M326.804 236.56L321.073 251.109L283.244 347.204L279.313 332.962L275.121 289.095L291.29 241.299L326.804 236.56Z" fill="#EDA5AC" stroke="#EDA5AC" stroke-miterlimit="10"/>
<g opacity="0.75">
<path d="M321.073 251.109L283.244 347.204L279.313 332.962L317.08 250.264L321.073 251.109Z" fill="#EDA5AC"/>
</g>
<path d="M455.989 306.143L450.992 331.284L447.833 347.204L410.004 251.109L404.261 236.56L439.775 241.299L455.989 306.143Z" fill="#EDA5AC" stroke="#EDA5AC" stroke-miterlimit="10"/>
<g opacity="0.75">
<path d="M450.992 331.284L447.833 347.204L410.004 251.109L413.997 250.264L450.992 331.284Z" fill="#EDA5AC"/>
</g>
<path d="M323.31 306.635C323.179 306.635 323.053 306.583 322.959 306.491C322.863 306.397 322.81 306.268 322.81 306.135C322.81 305.33 322.79 304.518 322.76 303.713L322.732 302.519L322.703 301.815C322.685 301.394 322.668 300.978 322.642 300.568C322.591 299.63 322.541 298.699 322.501 297.767C322.382 296.104 322.253 294.437 322.103 292.79L322.081 292.536C322.064 292.355 322.048 292.177 322.041 291.993L322.01 290.89L321.985 290.302C321.967 289.871 321.949 289.447 321.921 289.016L321.771 286.221C321.662 284.552 321.532 282.896 321.382 281.24L321.262 279.807L321.093 278.2C321.039 277.658 320.991 277.173 320.934 276.705L320.86 276.031C320.797 275.455 320.736 274.886 320.664 274.317L320.586 273.74L320.404 272.255C320.344 271.771 320.285 271.294 320.216 270.828L320.177 270.555C320.12 270.157 320.064 269.764 320.014 269.378L319.736 267.49C319.693 267.189 319.65 266.887 319.598 266.591C319.527 266.113 319.457 265.668 319.378 265.223C319.167 263.865 318.947 262.547 318.728 261.259C318.668 260.891 318.609 260.546 318.54 260.191C318.402 259.381 318.254 258.595 318.108 257.823L318 257.247C317.891 256.682 317.781 256.133 317.671 255.584C317.437 254.377 317.204 253.23 316.978 252.14C303.79 250.874 289.18 244.199 289.032 244.13C288.785 244.016 288.674 243.725 288.783 243.476L306.813 202.296C310.889 195.796 326.984 190.788 339.774 187.72C346.195 186.191 351.324 185.258 352.436 185.062C352.499 185.033 352.568 185.016 352.637 185.016C352.652 185.016 365.856 186.218 365.856 186.218C365.856 186.218 379.436 185.016 379.45 185.016C379.526 185.016 379.6 185.033 379.669 185.066C382.275 185.511 418.826 192.012 425.234 202.231L443.298 243.476C443.407 243.725 443.297 244.016 443.049 244.13C442.897 244.2 427.792 251.097 414.444 252.206C408.741 274.112 409.076 304.513 409.08 304.818C409.084 305.094 408.863 305.321 408.588 305.325L396.029 305.516L377.099 305.816L355.038 306.156L352.426 306.186C352.426 306.186 323.313 306.635 323.31 306.635Z" fill="#FFD33D"/>
<path d="M379.45 185.515V185.535C379.58 185.555 418.37 192.225 424.81 202.495L442.84 243.675C442.84 243.675 427.55 250.715 414.05 251.735C408.17 273.985 408.58 304.825 408.58 304.825L396.02 305.015L377.09 305.315L355.03 305.655L352.42 305.685L340.9 305.865L323.31 306.135C323.31 305.325 323.29 304.505 323.26 303.695C323.25 303.265 323.24 302.835 323.23 302.425C323.2 301.785 323.18 301.155 323.14 300.535C323.09 299.605 323.04 298.675 323 297.745C322.88 296.065 322.75 294.395 322.6 292.745C322.58 292.485 322.55 292.235 322.54 291.975C322.53 291.605 322.52 291.225 322.51 290.875C322.48 290.235 322.46 289.615 322.42 288.985C322.37 288.055 322.32 287.125 322.27 286.195C322.16 284.515 322.03 282.855 321.88 281.195C321.84 280.715 321.8 280.245 321.76 279.765C321.7 279.225 321.65 278.685 321.59 278.145C321.54 277.645 321.49 277.135 321.43 276.645C321.34 275.835 321.26 275.045 321.16 274.255C321.13 274.055 321.11 273.865 321.08 273.665C321.02 273.165 320.96 272.685 320.9 272.195C320.84 271.705 320.78 271.225 320.71 270.755C320.64 270.265 320.57 269.785 320.51 269.315C320.44 268.845 320.37 268.365 320.3 267.895C320.23 267.435 320.17 266.965 320.09 266.505C320.02 266.035 319.95 265.585 319.87 265.135C319.66 263.785 319.44 262.465 319.22 261.175C319.16 260.805 319.1 260.455 319.03 260.095C318.86 259.095 318.67 258.115 318.49 257.155C318.38 256.585 318.27 256.035 318.16 255.485C317.9 254.145 317.64 252.875 317.39 251.675C304.04 250.495 289.24 243.675 289.24 243.675L307.27 202.495C311.29 196.095 327.93 191.075 339.89 188.205C347.07 186.495 352.57 185.545 352.62 185.535L352.63 185.515L352.93 185.545L365.81 186.715L379.45 185.515ZM352.63 184.515C352.506 184.515 352.384 184.538 352.272 184.582C350.967 184.815 345.907 185.745 339.659 187.233C326.776 190.324 310.553 195.389 306.424 201.964C306.398 202.006 306.375 202.05 306.355 202.095L288.325 243.275C288.106 243.774 288.328 244.356 288.822 244.584C289.421 244.86 303.403 251.248 316.561 252.601C316.763 253.581 316.971 254.606 317.179 255.676C317.293 256.247 317.401 256.786 317.509 257.345L317.622 257.943C317.766 258.704 317.912 259.477 318.045 260.263C318.117 260.636 318.175 260.976 318.234 261.336C318.455 262.629 318.674 263.944 318.883 265.29C318.965 265.752 319.033 266.193 319.102 266.654C319.156 266.968 319.198 267.263 319.241 267.556L319.313 268.047L319.418 268.757L319.523 269.464C319.572 269.847 319.631 270.258 319.69 270.677L319.722 270.898C319.792 271.366 319.85 271.837 319.909 272.318L319.969 272.806L320.089 273.785C320.107 273.907 320.119 273.998 320.13 274.089C320.143 274.193 320.157 274.297 320.173 274.404C320.241 274.942 320.302 275.502 320.363 276.07L320.438 276.756C320.494 277.212 320.54 277.674 320.585 278.13L320.596 278.245C320.627 278.523 320.654 278.79 320.681 279.058C320.709 279.331 320.737 279.604 320.767 279.876L320.827 280.593L320.885 281.279C321.036 282.948 321.166 284.622 321.274 286.261L321.423 289.039C321.45 289.471 321.468 289.888 321.486 290.31L321.513 290.922L321.535 291.723L321.543 292.002C321.551 292.202 321.567 292.386 321.584 292.572L321.606 292.822C321.741 294.309 321.871 295.938 322.006 297.816C322.045 298.721 322.095 299.655 322.145 300.589C322.172 301.015 322.19 301.435 322.208 301.859L322.235 302.472L322.264 303.719C322.298 304.629 322.314 305.415 322.314 306.136C322.314 306.404 322.421 306.66 322.612 306.848C322.799 307.032 323.051 307.136 323.314 307.136C323.319 307.136 323.324 307.136 323.329 307.136L340.919 306.866L352.439 306.686L355.045 306.656L377.109 306.316L396.039 306.016L408.598 305.826C409.15 305.818 409.59 305.364 409.583 304.813C409.579 304.509 409.25 274.483 414.842 252.674C428.174 251.473 442.641 244.87 443.261 244.584C443.756 244.356 443.977 243.774 443.759 243.274L425.729 202.094C425.709 202.049 425.686 202.005 425.66 201.964C419.153 191.588 382.682 185.075 379.785 184.577C379.677 184.537 379.562 184.515 379.446 184.515C379.419 184.515 379.392 184.516 379.365 184.519L365.814 185.711L353.023 184.549L352.732 184.52C352.696 184.517 352.663 184.515 352.63 184.515Z" fill="#FFD33D"/>
<path d="M377.09 305.315L355.03 305.655L352.42 305.685L323.31 306.135C323.31 305.325 323.29 304.505 323.26 303.695C323.25 303.265 323.24 302.835 323.23 302.425C323.2 301.785 323.18 301.155 323.14 300.535C323.09 299.605 323.04 298.675 323 297.745C322.88 296.065 322.75 294.395 322.6 292.745C322.58 292.485 322.55 292.235 322.54 291.975C322.53 291.605 322.52 291.225 322.51 290.875C322.48 290.235 322.46 289.615 322.42 288.985C322.37 288.055 322.32 287.125 322.27 286.195C322.16 284.515 322.03 282.855 321.88 281.195C321.84 280.715 321.8 280.245 321.76 279.765C321.7 279.225 321.65 278.685 321.59 278.145C321.54 277.645 321.49 277.135 321.43 276.645C321.34 275.835 321.26 275.045 321.16 274.255C321.13 274.055 321.11 273.865 321.08 273.665C321.02 273.165 320.96 272.685 320.9 272.195C320.84 271.705 320.78 271.225 320.71 270.755C320.64 270.265 320.57 269.785 320.51 269.315C320.44 268.845 320.37 268.365 320.3 267.895C320.23 267.435 320.17 266.965 320.09 266.505C320.02 266.035 319 267 319 266C318.79 264.65 318.57 263.33 318.35 262.04C318.29 261.67 318.07 260.86 318 260.5C317.83 259.5 317.68 258.46 317.5 257.5C317.39 256.93 317.11 255.55 317 255C316.74 253.66 316.75 253.7 316.5 252.5C316.5 252.5 345.67 288.065 377.09 305.315Z" fill="#E3C940"/>
<path d="M379.45 157.925V188.205C379.45 188.205 376.28 190.585 369.11 191.015C368.41 191.055 367.66 191.075 366.88 191.075C361.9 191.075 358.22 190.285 355.86 189.535C353.71 188.855 352.63 188.205 352.63 188.205V161.145L379.45 157.925Z" fill="#EDA5AC"/>
<g opacity="0.75">
<path d="M369.11 191.015C368.41 191.055 367.66 191.075 366.88 191.075C361.9 191.075 358.22 190.285 355.86 189.535C353.71 188.855 352.63 188.205 352.63 188.205V163.315L363.39 168.485C363.39 168.485 360.98 183.195 369.11 191.015Z" fill="#EDA5AC"/>
</g>
<path d="M352.628 188.209V161.141L379.45 157.921V188.209" stroke="#EDA5AC" stroke-miterlimit="10" stroke-linecap="round" stroke-linejoin="round"/>
<path d="M333.725 128.971C334.064 133.686 332.169 137.664 329.492 137.856C326.816 138.048 324.372 134.382 324.033 129.667C323.694 124.952 325.589 120.974 328.265 120.781C330.942 120.589 333.386 124.255 333.725 128.971Z" fill="#FAAD3B" stroke="#6A26A8" stroke-miterlimit="10"/>
<g opacity="0.75">
<path d="M325.844 127.481C326.568 126.777 327.657 126.758 328.503 127.269C329.476 127.857 329.861 129.016 330.168 130.044C330.383 130.763 329.261 131.07 329.047 130.353C328.862 129.734 328.679 129.039 328.232 128.547C327.847 128.124 327.132 127.85 326.666 128.303C326.129 128.826 325.306 128.004 325.844 127.481Z" fill="#F5E073"/>
</g>
<path d="M397.701 128.971C397.362 133.686 399.257 137.664 401.933 137.856C404.609 138.048 407.053 134.382 407.392 129.667C407.731 124.952 405.836 120.974 403.16 120.781C400.484 120.589 398.04 124.255 397.701 128.971Z" fill="#EDA5AC" stroke="#6A26A8" stroke-miterlimit="10"/>
<g opacity="0.75">
<path d="M405.582 127.481C404.858 126.777 403.769 126.758 402.922 127.269C401.949 127.857 401.564 129.016 401.257 130.044C401.042 130.763 402.164 131.07 402.379 130.353C402.564 129.734 402.747 129.039 403.194 128.547C403.579 128.124 404.294 127.85 404.76 128.303C405.297 128.826 406.12 128.004 405.582 127.481Z" fill="#F5E073"/>
</g>
<path d="M366.836 171.161C363.949 171.161 361.087 170.79 358.332 170.058C356.264 169.518 354.272 168.79 352.414 167.895C351.73 167.57 351.124 167.257 350.564 166.94C349.642 166.428 348.683 165.824 347.635 165.095C339.297 159.257 333.452 149.591 330.732 137.141C329.558 131.622 328.992 125.57 329.05 119.15C329.008 117.604 329.022 116.078 329.091 114.631L329.097 114.493L329.117 114.458C329.963 99.1521 337.147 85.7371 348.349 78.5531C349.109 78.0601 349.885 77.6021 350.655 77.1931C355.053 74.7701 359.793 73.4741 364.737 73.3441C365.049 73.3351 365.362 73.3301 365.675 73.3301C371.851 73.3301 377.982 75.2171 383.404 78.7861C393.411 85.3571 400.551 97.3261 402.506 110.802L402.558 111.302C402.821 113.152 402.981 115.065 403.031 116.971C403.052 118.311 403.052 119.627 403.031 120.912L402.972 122.77C402.815 127.124 402.378 131.322 401.674 135.252C398.96 150.115 392.12 161.394 382.412 167.017C381.683 167.486 380.841 167.939 379.859 168.389L379.556 167.977L379.765 168.431L379.646 168.484C376.009 170.115 372.053 171.011 367.897 171.143C367.542 171.156 367.188 171.161 366.836 171.161Z" fill="#EDA5AC"/>
<path d="M365.674 73.8311C371.964 73.8311 377.915 75.7721 383.13 79.2051C392.86 85.5951 400.02 97.1451 402.01 110.875L402.06 111.355C402.32 113.185 402.48 115.075 402.53 116.985C402.55 118.315 402.55 119.625 402.53 120.905C402.51 121.525 402.49 122.145 402.47 122.755C402.31 127.185 401.87 131.315 401.18 135.165C398.38 150.505 391.45 161.205 382.16 166.585C381.35 167.105 380.5 167.545 379.65 167.935C379.58 167.965 379.52 167.995 379.45 168.025C375.86 169.635 371.97 170.515 367.88 170.645C367.532 170.656 367.184 170.661 366.836 170.661C363.991 170.661 361.178 170.296 358.46 169.575C356.47 169.055 354.52 168.355 352.63 167.445C352.02 167.155 351.41 166.845 350.81 166.505C349.82 165.955 348.87 165.345 347.92 164.685C340.18 159.265 334.07 150.075 331.22 137.035C330.09 131.725 329.49 125.765 329.55 119.155C329.51 117.645 329.52 116.135 329.59 114.655C329.59 114.635 329.59 114.635 329.61 114.605C330.43 99.1651 337.86 85.8751 348.62 78.9751C349.36 78.4951 350.12 78.0451 350.89 77.6351C355.12 75.3051 359.79 73.9751 364.75 73.8451C365.058 73.8361 365.367 73.8311 365.674 73.8311ZM365.675 72.8311C365.358 72.8311 365.039 72.8361 364.72 72.8451C359.7 72.9771 354.883 74.2931 350.408 76.7591C349.639 77.1681 348.85 77.6341 348.076 78.1361C336.75 85.3991 329.483 98.9481 328.62 114.401C328.602 114.476 328.59 114.56 328.59 114.655C328.522 116.063 328.508 117.602 328.55 119.181C328.491 125.603 329.06 131.692 330.241 137.243C332.99 149.822 338.905 159.593 347.346 165.504C348.413 166.246 349.386 166.858 350.324 167.379C350.889 167.699 351.505 168.017 352.2 168.348C354.082 169.254 356.104 169.993 358.207 170.542C361.001 171.284 363.906 171.661 366.836 171.661C367.194 171.661 367.552 171.655 367.911 171.644C372.133 171.51 376.153 170.599 379.859 168.937L379.969 168.888L380.044 168.854C381.071 168.383 381.932 167.92 382.701 167.426C392.499 161.753 399.425 150.351 402.165 135.344C402.873 131.391 403.312 127.169 403.471 122.791L403.531 120.937C403.552 119.635 403.552 118.305 403.531 116.97C403.48 115.032 403.319 113.099 403.051 111.214L403.005 110.771C401.027 97.1161 393.804 85.0181 383.679 78.3691C378.174 74.7461 371.948 72.8311 365.675 72.8311Z" fill="#EDA5AC"/>
<path d="M364.825 124.818C364.825 124.818 367.292 133.239 365.252 138.015C364.86 138.934 365.427 139.953 366.421 140.05C367.959 140.201 370.195 139.974 372.603 138.254" stroke="white" stroke-miterlimit="10" stroke-linecap="round" stroke-linejoin="round"/>
<path d="M364.332 147.792C364.332 147.792 371.92 151.08 378.113 144.566" stroke="white" stroke-miterlimit="10" stroke-linecap="round" stroke-linejoin="round"/>
<path d="M376.774 113.54C376.774 113.54 383.372 111.609 386.551 114.474" stroke="white" stroke-miterlimit="10" stroke-linecap="round" stroke-linejoin="round"/>
<path d="M347.64 113.54C347.64 113.54 354.238 111.609 357.417 114.474" stroke="white" stroke-miterlimit="10" stroke-linecap="round" stroke-linejoin="round"/>
<g opacity="0.75">
<path d="M367.88 170.645C364.68 170.745 361.51 170.385 358.46 169.575C356.47 169.055 354.52 168.355 352.63 167.445C352.02 167.155 351.41 166.845 350.81 166.505C349.82 165.955 348.87 165.345 347.92 164.685C340.18 159.265 334.07 150.075 331.22 137.035C330.09 131.725 329.49 125.765 329.55 119.155C329.51 117.645 329.52 116.135 329.59 114.655C329.59 114.635 329.59 114.635 329.61 114.605C330.43 99.1651 337.86 85.8751 348.62 78.9751L351.32 90.1951C351.32 90.1951 338.06 142.115 352.63 162.545C356.03 167.315 360.94 170.365 367.88 170.645Z" fill="#EDA5AC"/>
</g>
<g opacity="0.49">
<path d="M391.413 137.668C390.6 141.105 387.155 143.232 383.718 142.419C380.281 141.606 378.154 138.161 378.967 134.724C379.78 131.287 383.225 129.16 386.662 129.973C390.1 130.786 392.227 134.231 391.413 137.668Z" fill="#E8A137"/>
<path d="M353.062 138.671C352.249 142.108 348.804 144.235 345.367 143.422C341.93 142.609 339.803 139.164 340.616 135.727C341.429 132.29 344.874 130.163 348.312 130.976C351.749 131.789 353.875 135.234 353.062 138.671Z" fill="#E8A137"/>
</g>
<path d="M346.839 183.842C346.8 183.842 346.761 183.837 346.721 183.828C346.268 183.718 335.525 180.993 327.674 167.905C318.011 151.798 317.173 127.916 325.185 96.9231C325.75 94.7361 326.368 92.5741 327.021 90.4951C327.147 89.9791 327.292 89.4351 327.454 88.8931C329.284 82.7541 331.743 77.4291 334.763 73.0631C337.85 68.2901 341.378 64.9011 345.243 63.0021C350.329 59.9261 356.337 58.3551 363.063 58.3551C366.03 58.3551 369.189 58.6621 372.458 59.2671C372.452 59.1301 372.449 58.9931 372.449 58.8541C372.449 51.8281 378.165 46.1121 385.191 46.1121C392.217 46.1121 397.933 51.8281 397.933 58.8541C397.933 63.3081 395.613 67.4171 391.836 69.7271C408.021 87.4651 403.701 120.514 403.655 120.849C403.637 120.989 403.558 121.114 403.442 121.194C403.358 121.252 403.259 121.281 403.16 121.281C403.121 121.281 403.083 121.277 403.044 121.267C402.853 121.222 389.464 134.379 387 111.5C384.741 118.001 375.7 131.558 339.521 138.328C337.533 158.95 333.378 168.628 347.201 182.996C347.355 183.156 347.385 183.398 347.274 183.592C347.182 183.748 347.015 183.842 346.839 183.842Z" fill="#2E3446"/>
<path d="M385.19 46.613C391.951 46.613 397.432 52.094 397.432 58.855C397.432 63.496 394.849 67.533 391.042 69.609C407.759 87.257 403.159 120.781 403.159 120.781C403.159 120.781 383.358 116.069 382.518 90.144C382.518 90.144 382.436 111.268 334.326 120.163C332.347 140.3 332.582 168.524 346.838 183.342C346.838 183.342 305.919 173.452 325.667 97.049C326.252 94.784 326.864 92.658 327.496 90.646C327.629 90.108 327.772 89.571 327.931 89.037C329.661 83.236 332.032 77.888 335.173 73.35C338.386 68.383 341.862 65.222 345.462 63.452C350.295 60.53 356.108 58.856 363.061 58.856C366.06 58.856 369.272 59.167 372.708 59.824C372.807 59.843 372.902 59.867 373 59.887C372.971 59.546 372.948 59.203 372.948 58.855C372.948 52.094 378.429 46.613 385.19 46.613ZM385.19 45.613C377.95 45.613 372.049 51.452 371.949 58.669C368.863 58.129 365.877 57.856 363.061 57.856C356.259 57.856 350.177 59.443 344.982 62.573C341.05 64.517 337.468 67.959 334.333 72.806C331.3 77.188 328.818 82.561 326.973 88.751C326.826 89.245 326.682 89.777 326.533 90.376C325.88 92.456 325.263 94.617 324.699 96.799C316.653 127.927 317.509 151.937 327.244 168.163C335.202 181.428 346.141 184.202 346.603 184.314C346.681 184.333 346.76 184.342 346.838 184.342C347.19 184.342 347.524 184.155 347.705 183.84C347.926 183.455 347.866 182.969 347.558 182.649C333.949 168.504 333.314 141.481 335.249 121.008C355.024 117.264 369.133 111.039 377.19 102.504C379.586 99.965 381.075 97.586 382 95.607C383.558 106.051 388.399 112.357 392.494 115.937C397.676 120.466 402.714 121.703 402.926 121.754C403.003 121.772 403.08 121.781 403.158 121.781C403.358 121.781 403.555 121.721 403.723 121.606C403.956 121.447 404.11 121.196 404.149 120.917C404.336 119.552 408.479 87.807 392.599 69.83C396.225 67.38 398.431 63.281 398.431 58.854C398.432 51.553 392.492 45.613 385.19 45.613Z" fill="#2E3446"/>
<path d="M271.508 379.656C271.232 379.656 271.008 379.432 271.008 379.156V267.225C271.008 266.949 271.232 266.725 271.508 266.725H461.727C462.003 266.725 462.227 266.949 462.227 267.225V379.156C462.227 379.432 462.003 379.656 461.727 379.656H271.508Z" fill="url(#paint8_linear_2_1833)"/>
<path d="M208.86 379.415C208.616 379.415 208.408 379.239 208.367 379C206.388 367.484 201.184 337.379 200.884 336.38C200.839 336.229 200.866 336.059 200.96 335.932C201.054 335.805 201.201 335.725 201.359 335.725H243.719C243.868 335.725 244.009 335.791 244.104 335.907C244.199 336.021 244.238 336.173 244.21 336.319L236.62 376.149C236.614 376.182 236.604 376.214 236.592 376.245L236.07 379.009C236.026 379.245 235.819 379.416 235.579 379.416L208.86 379.415Z" fill="#EDEDED"/>
<path d="M222.043 355.341C220.408 351.661 220.831 348.33 221.507 346.128C217.11 346.325 213.594 350.635 213.594 355.937C213.594 361.365 217.276 365.765 221.819 365.765C221.942 365.765 222.061 365.749 222.183 365.743C223.046 363.136 223.75 359.181 222.043 355.341Z" fill="#75C3FC"/>
<path d="M231.678 355.937C231.678 350.509 227.996 346.109 223.453 346.109C223.348 346.109 223.246 346.123 223.141 346.128C222.465 348.33 222.041 351.661 223.677 355.341C225.384 359.181 224.68 363.136 223.816 365.742C228.189 365.513 231.678 361.217 231.678 355.937Z" fill="#75C3FC"/>
<path d="M201.36 336.725C201.175 336.725 201.005 336.622 200.919 336.459C200.832 336.296 200.842 336.099 200.946 335.945L205.036 329.886L209.736 322.906C209.829 322.768 209.984 322.685 210.15 322.685H235.91C236.086 322.685 236.249 322.778 236.339 322.928L240.509 329.908L244.149 335.967C244.242 336.122 244.244 336.315 244.155 336.471C244.066 336.628 243.9 336.725 243.72 336.725H201.36Z" fill="#EDEDED"/>
<path opacity="0.27" d="M236.12 376.055L235.58 378.915H208.86C208.86 378.915 201.69 337.205 201.36 336.225L205.45 330.165L210.15 323.185C210.15 323.185 209.99 328.725 210.85 336.225C212.51 350.885 218.04 373.055 236.12 376.055Z" fill="#7229B5"/>
<path d="M559.533 323.771C559.533 323.771 563.775 294.339 576.86 281.433" stroke="#7229B5" stroke-miterlimit="10"/>
<path d="M573.798 284.858C574.007 284.745 574.222 283.608 574.298 283.394C574.764 282.077 575.264 280.772 575.789 279.478C577.397 275.509 579.239 271.618 581.434 267.938C583.974 263.68 587.085 259.259 591.418 256.667C593.576 255.377 596.692 254.745 599.191 254.934C603.365 255.25 606.367 258.787 604.254 262.755C602.49 266.069 599.02 268.207 596.16 270.472C591.714 273.993 586.94 277.103 582.1 280.051C579.371 281.713 576.612 283.34 573.798 284.858Z" fill="#7229B5"/>
<path d="M568.373 336.061C568.373 336.061 570.034 313.121 583.119 300.215" stroke="#7229B5" stroke-miterlimit="10"/>
<path d="M579.404 304.382C579.714 304.215 580.049 302.543 580.17 302.221C580.844 300.429 581.591 298.664 582.414 296.936C584.404 292.754 586.879 288.271 590.62 285.4C592.984 283.586 599.791 281.705 601.141 285.91C601.371 286.626 601.189 287.411 600.896 288.104C599.845 290.588 597.548 292.303 595.512 293.952C593.249 295.784 590.843 297.44 588.4 299.021C585.472 300.915 582.474 302.726 579.404 304.382Z" fill="#7229B5"/>
<path d="M539.205 279.264C539.205 279.264 552.714 290.763 558.953 326.922" stroke="#7229B5" stroke-miterlimit="10"/>
<path d="M543.191 283.829C542.91 283.66 542.635 282.615 542.502 282.33C541.878 280.996 541.235 279.671 540.578 278.353C538.563 274.312 536.414 270.332 534.058 266.478C531.633 262.512 529.001 258.531 525.698 255.232C523.713 253.249 520.618 250.571 517.565 251.643C515.617 252.326 513.886 254.635 513.647 256.609C513.259 259.81 516.406 263.089 518.467 265.238C520.675 267.541 523.107 269.626 525.597 271.616C530.19 275.286 535.036 278.644 539.983 281.818C541.044 282.5 542.11 283.178 543.191 283.829Z" fill="#7229B5"/>
<path d="M553.34 324.55C553.34 324.55 547.536 307.527 555.241 290.841" stroke="#7229B5" stroke-miterlimit="10"/>
<path d="M554.088 293.876C553.893 290.721 554.014 287.515 554.32 284.373C554.79 279.553 555.668 273.67 559.169 270.018C560.844 268.27 563.202 267.384 565.627 267.666C574.161 268.657 558.871 287.93 556.777 290.576C555.898 291.688 555.009 292.796 554.088 293.876Z" fill="#7229B5"/>
<path d="M553.099 323.867C553.099 323.867 541.724 303.876 524.358 297.861" stroke="#7229B5" stroke-miterlimit="10"/>
<path d="M533.038 302.056C532.687 302.012 531.767 300.57 531.538 300.314C530.257 298.883 528.917 297.503 527.52 296.184C522.905 291.826 515.167 285.105 508.443 289.05C507.674 289.501 506.964 290.083 506.486 290.835C504.038 294.687 509.97 296.675 512.602 297.623C515.411 298.635 518.323 299.365 521.237 300.004C525.126 300.857 529.062 301.545 533.012 302.053C533.021 302.054 533.03 302.055 533.038 302.056Z" fill="#7229B5"/>
<path d="M580.767 315.877H537.139V376.918H580.767V315.877Z" fill="#F5E073"/>
<path d="M580.268 316.377V376.418H537.639V316.377H580.268ZM581.268 315.377H580.268H537.639H536.639V316.377V376.418V377.418H537.639H580.268H581.268V376.418V316.377V315.377Z" fill="#6A26A8"/>
<path d="M578.26 376.418H537.639V316.377C537.639 316.377 543.381 371.638 578.26 376.418Z" fill="#EDD349"/>
<path d="M171.963 352.631C171.851 352.631 171.737 352.625 171.622 352.613C169.951 352.446 168.641 350.924 168.641 349.148V313.176C168.641 312.9 168.865 312.676 169.141 312.676H174.784C175.06 312.676 175.284 312.9 175.284 313.176V349.309C175.284 350.197 174.938 351.031 174.311 351.658C173.684 352.285 172.85 352.631 171.963 352.631Z" fill="#F5E073"/>
<path d="M174.784 313.177V349.309C174.784 350.867 173.521 352.13 171.963 352.13C171.867 352.13 171.77 352.125 171.672 352.115C170.203 351.968 169.141 350.623 169.141 349.147V313.175H174.784M174.784 312.177H169.141C168.589 312.177 168.141 312.625 168.141 313.177V349.149C168.141 351.178 169.648 352.919 171.572 353.112C171.703 353.125 171.834 353.132 171.963 353.132C174.07 353.132 175.784 351.418 175.784 349.311V313.179C175.784 312.625 175.337 312.177 174.784 312.177Z" fill="#6A26A8"/>
<path d="M172.907 310.418C172.435 309.789 171.491 309.789 171.019 310.418L169.141 312.922V313.178H174.784V312.922L172.907 310.418Z" fill="#7229B5"/>
<path d="M163.742 317.528L165.335 318.713V324.635L163.742 326.056V317.528Z" fill="#7229B5"/>
<path d="M160.921 344.937C159.09 344.937 157.6 343.447 157.6 341.616V312.173H164.243V341.616C164.242 343.447 162.752 344.937 160.921 344.937Z" fill="#F5E073"/>
<path d="M163.742 312.672V341.615C163.742 343.173 162.479 344.437 160.921 344.437C159.363 344.437 158.1 343.174 158.1 341.615V312.672H163.742ZM164.742 311.672H163.742H158.099H157.099V312.672V341.615C157.099 343.722 158.813 345.437 160.92 345.437C163.027 345.437 164.741 343.723 164.741 341.615V312.672V311.672H164.742Z" fill="#6A26A8"/>
<path d="M157.599 313.172V308.305C157.599 306.474 159.089 304.984 160.92 304.984C162.752 304.984 164.241 306.474 164.241 308.305V313.172H157.599Z" fill="#F5E073"/>
<path d="M160.921 305.483C162.479 305.483 163.742 306.746 163.742 308.305V312.672H158.099V308.305C158.099 306.747 159.362 305.483 160.921 305.483ZM160.921 304.483C158.814 304.483 157.1 306.197 157.1 308.305V312.672V313.672H158.1H163.743H164.743V312.672V308.305C164.742 306.198 163.028 304.483 160.921 304.483Z" fill="#6A26A8"/>
<path d="M152.116 352.631C150.284 352.631 148.795 351.141 148.795 349.31V315.999C148.795 314.168 150.285 312.678 152.116 312.678C153.947 312.678 155.437 314.168 155.437 315.999V349.31C155.437 351.141 153.947 352.631 152.116 352.631Z" fill="#F5E073"/>
<path d="M152.116 313.177C153.674 313.177 154.937 314.44 154.937 315.998V349.309C154.937 350.867 153.674 352.13 152.116 352.13C150.558 352.13 149.295 350.867 149.295 349.309V315.998C149.294 314.44 150.558 313.177 152.116 313.177ZM152.116 312.177C150.009 312.177 148.295 313.891 148.295 315.998V349.309C148.295 351.416 150.009 353.13 152.116 353.13C154.223 353.13 155.937 351.416 155.937 349.309V315.998C155.937 313.892 154.223 312.177 152.116 312.177Z" fill="#6A26A8"/>
<path d="M179.968 326.065L178.375 327.249V333.171L179.968 334.592V326.065Z" fill="#7229B5"/>
<path d="M182.789 353.473C180.958 353.473 179.468 351.983 179.468 350.152V320.709H186.111V350.152C186.111 351.983 184.621 353.473 182.789 353.473Z" fill="#F5E073"/>
<path d="M185.611 321.208V350.151C185.611 351.709 184.348 352.973 182.79 352.973C181.232 352.973 179.969 351.71 179.969 350.151V321.208H185.611ZM186.611 320.208H185.611H179.968H178.968V321.208V350.151C178.968 352.258 180.682 353.973 182.789 353.973C184.896 353.973 186.611 352.259 186.611 350.151V321.208V320.208Z" fill="#6A26A8"/>
<path d="M182.789 314.02C184.347 314.02 185.611 315.283 185.611 316.842V321.209H179.968V316.842C179.968 315.283 181.231 314.02 182.789 314.02Z" fill="#7229B5"/>
<path d="M187.64 329.705V368.415C187.64 371.315 186.49 373.945 184.62 375.875C182.67 377.895 179.93 379.155 176.9 379.155H156.08C150.14 379.155 145.33 374.345 145.33 368.415V329.705H187.64Z" fill="#75C3FC"/>
<path d="M184.62 375.875C182.67 377.895 179.93 379.155 176.9 379.155H156.08C150.14 379.155 145.33 374.345 145.33 368.415V329.705C145.33 329.705 158.05 366.265 184.62 375.875Z" fill="#55B6FD"/>
<path d="M143.941 399.817C137.252 399.817 131.809 394.375 131.809 387.685C131.809 380.995 137.251 375.553 143.941 375.553H606.059C612.748 375.553 618.191 380.995 618.191 387.685C618.191 394.374 612.749 399.817 606.059 399.817H143.941Z" fill="#EDEDED"/>
<path d="M606.059 376.053C612.483 376.053 617.691 381.261 617.691 387.685C617.691 394.109 612.483 399.317 606.059 399.317H143.941C137.517 399.317 132.309 394.109 132.309 387.685C132.309 381.261 137.517 376.053 143.941 376.053H606.059ZM606.059 375.053H143.941C136.976 375.053 131.309 380.72 131.309 387.685C131.309 394.65 136.976 400.317 143.941 400.317H606.059C613.024 400.317 618.691 394.65 618.691 387.685C618.691 380.72 613.024 375.053 606.059 375.053Z" fill="#6A26A8"/>
<defs>
<linearGradient id="paint0_linear_2_1833" x1="367.003" y1="85.0003" x2="521.999" y2="85.0003" gradientUnits="userSpaceOnUse">
<stop stop-color="#FFE466"/>
<stop offset="1" stop-color="#FFAFEA"/>
</linearGradient>
<linearGradient id="paint1_linear_2_1833" x1="227.497" y1="161.616" x2="227.497" y2="46.8917" gradientUnits="userSpaceOnUse">
<stop stop-color="#FFE466"/>
<stop offset="1" stop-color="#FFAFEA"/>
</linearGradient>
<linearGradient id="paint2_linear_2_1833" x1="189.497" y1="72.0285" x2="204.41" y2="188.325" gradientUnits="userSpaceOnUse">
<stop stop-color="#75C3FC"/>
<stop offset="0.0929" stop-color="#81C2F6"/>
<stop offset="1" stop-color="#F0B8BD"/>
</linearGradient>
<linearGradient id="paint3_linear_2_1833" x1="451.478" y1="51.0001" x2="550.223" y2="51.0001" gradientUnits="userSpaceOnUse">
<stop stop-color="#75C3FC"/>
<stop offset="0.0929" stop-color="#81C2F6"/>
<stop offset="1" stop-color="#F0B8BD"/>
</linearGradient>
<linearGradient id="paint4_linear_2_1833" x1="96.7111" y1="109.918" x2="319.7" y2="99.6755" gradientUnits="userSpaceOnUse">
<stop stop-color="#75C3FC"/>
<stop offset="0.0929" stop-color="#81C2F6"/>
<stop offset="1" stop-color="#F0B8BD"/>
</linearGradient>
<linearGradient id="paint5_linear_2_1833" x1="304.999" y1="148.501" x2="493.998" y2="148.501" gradientUnits="userSpaceOnUse">
<stop stop-color="#75C3FC"/>
<stop offset="0.0929" stop-color="#81C2F6"/>
<stop offset="1" stop-color="#F0B8BD"/>
</linearGradient>
<linearGradient id="paint6_linear_2_1833" x1="441.001" y1="248.998" x2="569" y2="248.998" gradientUnits="userSpaceOnUse">
<stop stop-color="#75C3FC"/>
<stop offset="0.0929" stop-color="#81C2F6"/>
<stop offset="1" stop-color="#F0B8BD"/>
</linearGradient>
<linearGradient id="paint7_linear_2_1833" x1="180.003" y1="293.003" x2="321" y2="293.003" gradientUnits="userSpaceOnUse">
<stop stop-color="#75C3FC"/>
<stop offset="0.0929" stop-color="#81C2F6"/>
<stop offset="1" stop-color="#F0B8BD"/>
</linearGradient>
<linearGradient id="paint8_linear_2_1833" x1="271" y1="271" x2="462" y2="376" gradientUnits="userSpaceOnUse">
<stop stop-color="#75C3FC"/>
<stop offset="1" stop-color="#3D71F2"/>
</linearGradient>
</defs>
</svg>
