<svg width="107" height="100" viewBox="0 0 107 100" fill="none" xmlns="http://www.w3.org/2000/svg">
<path d="M56.4282 100C84.0425 100 106.428 77.6142 106.428 50C106.428 22.3858 84.0425 0 56.4282 0C28.814 0 6.42822 22.3858 6.42822 50C6.42822 77.6142 28.814 100 56.4282 100Z" fill="#1B1F48" fill-opacity="0.63"/>
<path d="M86.5692 21.4277H39.8587C35.2027 21.4277 31.4282 25.2022 31.4282 29.8582V82.9972C31.4282 87.6533 35.2027 91.4277 39.8587 91.4277H86.5692C91.2252 91.4277 94.9997 87.6533 94.9997 82.9972V29.8582C94.9997 25.2022 91.2252 21.4277 86.5692 21.4277Z" fill="url(#paint0_linear_2_4358)"/>
<path d="M39.5352 32.5085C39.5352 30.9786 40.7754 29.7385 42.3052 29.7385H57.0787C58.6086 29.7385 59.8487 30.9786 59.8487 32.5085C59.8487 34.0383 58.6086 35.2785 57.0787 35.2785H42.3052C40.7754 35.2785 39.5352 34.0383 39.5352 32.5085Z" fill="url(#paint1_linear_2_4358)"/>
<path d="M39.5352 42.6651C39.5352 41.1352 40.7754 39.8951 42.3052 39.8951H83.8557C85.3854 39.8951 86.626 41.1352 86.626 42.6651C86.626 44.1949 85.3854 45.4352 83.8557 45.4352H42.3052C40.7754 45.4352 39.5352 44.1949 39.5352 42.6651Z" fill="url(#paint2_linear_2_4358)"/>
<path d="M39.5352 50.0519C39.5352 48.522 40.7754 47.2819 42.3052 47.2819H79.2391C80.7688 47.2819 82.0094 48.522 82.0094 50.0519C82.0094 51.5817 80.7688 52.822 79.2391 52.822H42.3052C40.7754 52.822 39.5352 51.5817 39.5352 50.0519Z" fill="url(#paint3_linear_2_4358)"/>
<path d="M39.5352 57.4387C39.5352 55.9089 40.7754 54.6687 42.3052 54.6687H69.0822C70.612 54.6687 71.8523 55.9089 71.8523 57.4387C71.8523 58.9686 70.612 60.2088 69.0822 60.2088H42.3052C40.7754 60.2088 39.5352 58.9686 39.5352 57.4387Z" fill="url(#paint4_linear_2_4358)"/>
<g filter="url(#filter0_d_2_4358)">
<path d="M43.343 40.5667L29.5385 34.4178C29.3408 34.3299 29.1264 34.2844 28.9096 34.2844C28.6929 34.2844 28.4785 34.3299 28.2808 34.4178L14.4763 40.5667C14.2067 40.6866 13.9779 40.8811 13.8173 41.1267C13.6567 41.3722 13.5714 41.6585 13.5713 41.951V56.1596C13.5701 57.2407 13.7976 58.31 14.2393 59.2987C14.681 60.2874 15.3271 61.1736 16.1359 61.9002L23.8051 68.7609C25.2022 70.017 27.022 70.713 28.9096 70.713C30.7972 70.713 32.6172 70.017 34.0143 68.7609L41.6834 61.9002C42.4922 61.1736 43.1383 60.2874 43.58 59.2987C44.0217 58.31 44.2493 57.2407 44.248 56.1596V41.951C44.248 41.6585 44.1625 41.3722 44.002 41.1267C43.8414 40.8811 43.6126 40.6866 43.343 40.5667ZM36.134 49.0181L28.4648 56.6074C28.1772 56.892 27.7872 57.0518 27.3804 57.0518C26.9737 57.0518 26.5836 56.892 26.296 56.6074L21.6945 52.0538C21.4151 51.7676 21.2605 51.3841 21.264 50.9862C21.2675 50.5882 21.4288 50.2075 21.7132 49.9261C21.9976 49.6446 22.3822 49.485 22.7844 49.4816C23.1866 49.4781 23.574 49.6311 23.8633 49.9076L27.3758 53.388L33.9606 46.8719C34.2498 46.5954 34.6373 46.4424 35.0395 46.4459C35.4417 46.4494 35.8264 46.609 36.1107 46.8904C36.3951 47.1718 36.5564 47.5525 36.5599 47.9505C36.5634 48.3485 36.4088 48.7319 36.1294 49.0181H36.134Z" fill="black"/>
<path d="M43.343 40.5667L29.5385 34.4178C29.3408 34.3299 29.1264 34.2844 28.9096 34.2844C28.6929 34.2844 28.4785 34.3299 28.2808 34.4178L14.4763 40.5667C14.2067 40.6866 13.9779 40.8811 13.8173 41.1267C13.6567 41.3722 13.5714 41.6585 13.5713 41.951V56.1596C13.5701 57.2407 13.7976 58.31 14.2393 59.2987C14.681 60.2874 15.3271 61.1736 16.1359 61.9002L23.8051 68.7609C25.2022 70.017 27.022 70.713 28.9096 70.713C30.7972 70.713 32.6172 70.017 34.0143 68.7609L41.6834 61.9002C42.4922 61.1736 43.1383 60.2874 43.58 59.2987C44.0217 58.31 44.2493 57.2407 44.248 56.1596V41.951C44.248 41.6585 44.1625 41.3722 44.002 41.1267C43.8414 40.8811 43.6126 40.6866 43.343 40.5667ZM36.134 49.0181L28.4648 56.6074C28.1772 56.892 27.7872 57.0518 27.3804 57.0518C26.9737 57.0518 26.5836 56.892 26.296 56.6074L21.6945 52.0538C21.4151 51.7676 21.2605 51.3841 21.264 50.9862C21.2675 50.5882 21.4288 50.2075 21.7132 49.9261C21.9976 49.6446 22.3822 49.485 22.7844 49.4816C23.1866 49.4781 23.574 49.6311 23.8633 49.9076L27.3758 53.388L33.9606 46.8719C34.2498 46.5954 34.6373 46.4424 35.0395 46.4459C35.4417 46.4494 35.8264 46.609 36.1107 46.8904C36.3951 47.1718 36.5564 47.5525 36.5599 47.9505C36.5634 48.3485 36.4088 48.7319 36.1294 49.0181H36.134Z" fill="url(#paint5_linear_2_4358)"/>
</g>
<path d="M28.643 56.8081L37.0874 48.5227H37.0823C37.3899 48.2102 37.5601 47.7916 37.5563 47.3571C37.5525 46.9227 37.3749 46.507 37.0617 46.1998C36.7486 45.8925 36.325 45.7182 35.8822 45.7145C35.4393 45.7107 35.0128 45.8777 34.6943 46.1796L27.444 53.2935L23.5765 49.4938C23.258 49.1919 22.8314 49.0249 22.3885 49.0287C21.9457 49.0325 21.5222 49.2067 21.2091 49.514C20.8959 49.8212 20.7183 50.2368 20.7144 50.6713C20.7106 51.1058 20.8808 51.5243 21.1885 51.8369L26.255 56.8081C26.5717 57.1188 27.0012 57.2933 27.4491 57.2933C27.8969 57.2933 28.3264 57.1188 28.643 56.8081Z" fill="white"/>
<path d="M10.2883 14.2963C10.2814 13.4681 11.2183 12.9832 11.8906 13.4668L15.1964 15.8448C15.3707 15.9703 15.5806 16.0369 15.7954 16.0352L19.8675 16.0019C20.6956 15.9952 21.1806 16.932 20.697 17.6043L18.3189 20.9101C18.1935 21.0845 18.1268 21.2943 18.1285 21.5091L18.1618 25.5812C18.1686 26.4094 17.2318 26.8943 16.5595 26.4107L13.2537 24.0327C13.0793 23.9072 12.8695 23.8405 12.6547 23.8422L8.58253 23.8756C7.75441 23.8823 7.26941 22.9455 7.75304 22.2732L10.1312 18.9674C10.2566 18.793 10.3233 18.5832 10.3215 18.3684L10.2883 14.2963Z" fill="#57A4FF"/>
<path d="M102.142 51.4941C102.54 51.0505 103.273 51.247 103.396 51.83L104 54.697C104.032 54.8483 104.111 54.9854 104.226 55.0887L106.407 57.0454C106.851 57.4434 106.654 58.1765 106.071 58.2994L103.204 58.9036C103.053 58.9355 102.916 59.0147 102.812 59.1298L100.856 61.3106C100.458 61.7541 99.7248 61.5576 99.6016 60.9746L98.9972 58.1075C98.9653 57.9563 98.8864 57.8191 98.7711 57.7159L96.5907 55.7591C96.1472 55.3612 96.3436 54.6281 96.9269 54.5052L99.7936 53.901C99.945 53.8691 100.082 53.7899 100.186 53.6748L102.142 51.4941Z" fill="url(#paint6_linear_2_4358)"/>
<path d="M4.12989 40.7295C5.28733 40.1304 5.77026 38.765 5.20854 37.6799C4.64682 36.5948 3.25316 36.2009 2.09573 36.8C0.938289 37.3992 0.455364 38.7646 1.01708 39.8497C1.5788 40.9348 2.97245 41.3287 4.12989 40.7295Z" fill="white"/>
<path d="M102.444 32.4194C102.969 32.1474 103.188 31.5277 102.933 31.0352C102.678 30.5427 102.046 30.364 101.52 30.6359C100.995 30.9078 100.776 31.5275 101.031 32.02C101.286 32.5125 101.918 32.6913 102.444 32.4194Z" fill="#FFBCEB"/>
<path d="M8.98888 34.1612L52.921 0.121094C54.0797 0.0408099 55.2492 0 56.4282 0C63.4637 0 70.1598 1.4531 76.2325 4.07555L7.01829 57.7053C6.6298 55.1937 6.42822 52.6204 6.42822 50C6.42822 44.4642 7.32787 39.1385 8.98888 34.1612Z" fill="url(#paint7_linear_2_4358)"/>
<path d="M82.326 7.24841L22.0126 53.9814L19.7039 51.0017L78.7355 5.26212C79.9623 5.87612 81.1601 6.53908 82.326 7.24841Z" fill="url(#paint8_linear_2_4358)"/>
<defs>
<filter id="filter0_d_2_4358" x="5.57129" y="26.2844" width="66.6768" height="72.4286" filterUnits="userSpaceOnUse" color-interpolation-filters="sRGB">
<feFlood flood-opacity="0" result="BackgroundImageFix"/>
<feColorMatrix in="SourceAlpha" type="matrix" values="0 0 0 0 0 0 0 0 0 0 0 0 0 0 0 0 0 0 127 0" result="hardAlpha"/>
<feOffset dx="10" dy="10"/>
<feGaussianBlur stdDeviation="9"/>
<feComposite in2="hardAlpha" operator="out"/>
<feColorMatrix type="matrix" values="0 0 0 0 0 0 0 0 0 0 0 0 0 0 0 0 0 0 0.35 0"/>
<feBlend mode="normal" in2="BackgroundImageFix" result="effect1_dropShadow_2_4358"/>
<feBlend mode="normal" in="SourceGraphic" in2="effect1_dropShadow_2_4358" result="shape"/>
</filter>
<linearGradient id="paint0_linear_2_4358" x1="71.5271" y1="89.5732" x2="71.5271" y2="32.5536" gradientUnits="userSpaceOnUse">
<stop stop-color="#76ADFF"/>
<stop offset="1" stop-color="#8D8BFD"/>
</linearGradient>
<linearGradient id="paint1_linear_2_4358" x1="59.9198" y1="60.062" x2="59.9198" y2="20.714" gradientUnits="userSpaceOnUse">
<stop stop-color="#6380E8"/>
<stop offset="1" stop-color="#817EEC"/>
</linearGradient>
<linearGradient id="paint2_linear_2_4358" x1="59.9198" y1="60.062" x2="59.9198" y2="20.714" gradientUnits="userSpaceOnUse">
<stop stop-color="#6380E8"/>
<stop offset="1" stop-color="#817EEC"/>
</linearGradient>
<linearGradient id="paint3_linear_2_4358" x1="59.9198" y1="60.062" x2="59.9198" y2="20.714" gradientUnits="userSpaceOnUse">
<stop stop-color="#6380E8"/>
<stop offset="1" stop-color="#817EEC"/>
</linearGradient>
<linearGradient id="paint4_linear_2_4358" x1="59.9198" y1="60.062" x2="59.9198" y2="20.714" gradientUnits="userSpaceOnUse">
<stop stop-color="#6380E8"/>
<stop offset="1" stop-color="#817EEC"/>
</linearGradient>
<linearGradient id="paint5_linear_2_4358" x1="30.7497" y1="71.1057" x2="24.5392" y2="35.9337" gradientUnits="userSpaceOnUse">
<stop stop-color="#1BC400"/>
<stop offset="1" stop-color="#8FF81D"/>
</linearGradient>
<linearGradient id="paint6_linear_2_4358" x1="94.9465" y1="69.5846" x2="109.243" y2="40.4599" gradientUnits="userSpaceOnUse">
<stop stop-color="#B18CFF"/>
<stop offset="1" stop-color="#FF6666"/>
</linearGradient>
<linearGradient id="paint7_linear_2_4358" x1="85.9267" y1="-10.6195" x2="4.8058" y2="48.3776" gradientUnits="userSpaceOnUse">
<stop stop-color="#D9D9D9" stop-opacity="0.1"/>
<stop offset="1" stop-color="#D9D9D9" stop-opacity="0"/>
</linearGradient>
<linearGradient id="paint8_linear_2_4358" x1="118.377" y1="-10.6196" x2="37.2555" y2="48.3775" gradientUnits="userSpaceOnUse">
<stop stop-color="#D9D9D9" stop-opacity="0.1"/>
<stop offset="1" stop-color="#D9D9D9" stop-opacity="0"/>
</linearGradient>
</defs>
</svg>
